<?xml version="1.0" encoding="UTF-8"?>
<svg width="310px" height="156px" viewBox="0 0 310 156" version="1.1" xmlns="http://www.w3.org/2000/svg" xmlns:xlink="http://www.w3.org/1999/xlink">
    <title>Group 6</title>
    <defs>
        <linearGradient x1="100%" y1="50%" x2="0%" y2="50%" id="linearGradient-1">
            <stop stop-color="#0BB074" offset="0%"></stop>
            <stop stop-color="#079EBA" offset="48.7611144%"></stop>
            <stop stop-color="#822B90" offset="100%"></stop>
        </linearGradient>
    </defs>
    <g id="Page-1" stroke="none" stroke-width="1" fill="none" fill-rule="evenodd">
        <g id="Group-6">
            <path d="M66.512,120 C68.864,120 70.712,118.152 70.712,115.968 C70.712,113.616 68.864,111.768 66.512,111.768 L10.232,111.768 L10.232,6.432 C10.232,4.248 8.384,2.4 6.032,2.4 C3.848,2.4 2,4.248 2,6.432 L2,115.968 C2,118.152 3.848,120 6.032,120 L6.368,120 L66.512,120 Z M77.32,86.232 C77.32,104.712 92.272,119.664 110.584,119.832 C120.832,119.832 129.904,115.128 136.12,108.072 L136.12,113.448 C135.952,130.416 122.176,144.024 105.04,144.024 C100.336,144.024 95.632,142.848 91.6,140.832 C89.584,140.328 87.4,140.832 86.392,142.848 C85.384,144.696 86.224,147.048 88.072,148.224 C93.28,150.576 98.992,152.088 105.04,152.088 C126.712,152.088 144.184,134.952 144.184,113.448 L144.184,87.744 L144.184,86.232 L144.184,41.544 C144.184,41.04 144.016,40.368 143.68,39.864 C143.512,39.36 143.008,38.856 142.672,38.52 C142,38.184 141.328,37.848 140.656,37.68 L140.152,37.68 L139.648,37.68 C139.48,37.68 139.312,37.848 139.144,37.848 L138.808,37.848 C138.304,38.016 137.632,38.352 137.296,38.856 C137.128,38.856 137.128,39.024 136.96,39.024 C136.96,39.192 136.792,39.36 136.792,39.528 C136.288,40.032 136.12,40.872 136.12,41.544 L136.12,86.232 C135.952,100.344 124.696,111.6 110.584,111.6 C96.64,111.6 85.384,100.344 85.384,86.232 L85.384,41.544 C85.384,39.36 83.536,37.68 81.184,37.68 C79.168,37.68 77.32,39.36 77.32,41.544 L77.32,86.232 Z M219.792,115.968 C219.792,118.32 221.64,120 223.824,120 C226.008,120 227.856,118.32 227.856,115.968 L227.856,71.28 C227.856,52.968 212.904,37.848 194.424,37.848 C184.176,37.848 174.936,42.552 168.888,49.776 L168.888,41.88 C168.888,39.696 167.208,37.848 165.024,37.848 C162.672,37.848 160.992,39.696 160.992,41.88 L160.992,69.936 L160.992,71.28 L160.992,115.968 L160.992,116.976 C160.992,116.976 161.16,117.144 161.16,117.312 C161.16,117.48 161.16,117.648 161.328,117.816 C161.832,118.824 162.84,119.664 164.016,120 L165.024,120 C166.2,120 167.376,119.496 168.048,118.488 C168.552,117.984 168.72,117.312 168.888,116.64 L168.888,115.968 L168.888,71.28 C169.224,57.336 180.48,45.912 194.424,45.912 C208.536,45.912 219.792,57.336 219.792,71.28 L219.792,115.968 Z M243.976,115.968 C243.976,118.152 245.824,120 248.008,120 C250.36,120 252.208,118.152 252.208,115.968 L252.208,97.152 L269.008,80.352 L300.592,118.488 C301.264,119.664 302.608,120 303.784,120 C304.624,120 305.632,119.832 306.472,119.16 C308.152,117.48 308.32,115.128 306.808,113.28 L274.888,74.472 L306.64,42.72 C308.32,41.04 308.32,38.52 306.64,37.008 C304.96,35.328 302.608,35.328 300.928,37.008 L252.208,85.56 L252.208,6.432 C252.208,4.248 250.36,2.4 248.008,2.4 C245.824,2.4 243.976,4.248 243.976,6.432 L243.976,115.968 Z" id="Combined-Shape-Copy" fill="url(#linearGradient-1)" fill-rule="nonzero"></path>
            <rect id="Rectangle-Copy" x="0" y="0" width="310" height="156"></rect>
        </g>
    </g>
</svg>