<?xml version="1.0" encoding="UTF-8"?>
<svg width="314px" height="144px" viewBox="0 0 314 144" version="1.1" xmlns="http://www.w3.org/2000/svg" xmlns:xlink="http://www.w3.org/1999/xlink">
    <title>Combined Shape</title>
    <g id="Page-1" stroke="none" stroke-width="1" fill="none" fill-rule="evenodd">
        <path d="M81.2307692,77.5384615 C81.2307692,89.7736929 91.149384,99.6923077 103.384615,99.6923077 C115.619847,99.6923077 125.538462,89.7736929 125.538462,77.5384615 L125.538462,33.2307692 C125.538462,31.191564 127.191564,29.5384615 129.230769,29.5384615 L136.615385,29.5384615 C138.65459,29.5384615 140.307692,31.191564 140.307692,33.2307692 L140.307692,101.538462 C140.307692,124.989322 121.297014,144 97.8461538,144 L90.4615385,144 C88.4223332,144 86.7692308,142.346898 86.7692308,140.307692 L86.7692308,132.923077 C86.7692308,130.883872 88.4223332,129.230769 90.4615385,129.230769 L97.8461538,129.230769 C111.071675,129.230769 122.13176,119.959435 124.881584,107.561593 C118.825838,111.905101 111.40377,114.461538 103.384615,114.461538 C82.9925631,114.461538 66.4615385,97.9305138 66.4615385,77.5384615 C66.4615385,77.0640445 66.4704859,76.5917173 66.4882212,76.1216394 C66.4699412,75.981116 66.4615385,75.8376931 66.4615385,75.6923077 L66.4615385,33.2307692 C66.4615385,31.191564 68.1146409,29.5384615 70.1538462,29.5384615 L77.5384615,29.5384615 C79.5776668,29.5384615 81.2307692,31.191564 81.2307692,33.2307692 L81.2307692,77.5384615 Z M169.846154,110.769231 C169.846154,112.808436 168.193051,114.461538 166.153846,114.461538 L158.769231,114.461538 C156.730026,114.461538 155.076923,112.808436 155.076923,110.769231 L155.076923,33.2307692 C155.076923,31.191564 156.730026,29.5384615 158.769231,29.5384615 L166.153846,29.5384615 C168.193051,29.5384615 169.846154,31.191564 169.846154,33.2307692 L169.847059,36.9196932 C176.017935,32.2848625 183.688239,29.5384615 192,29.5384615 C212.179635,29.5384615 228.578262,45.7268835 228.91771,65.825558 L228.923077,66.4615385 L228.923077,110.769231 C228.923077,112.808436 227.269974,114.461538 225.230769,114.461538 L217.846154,114.461538 C215.806949,114.461538 214.153846,112.808436 214.153846,110.769231 L214.153846,66.4615385 C214.153846,54.2263071 204.235231,44.3076923 192,44.3076923 C179.953003,44.3076923 170.15189,53.9234665 169.853169,65.8985081 L169.846154,66.4615385 L169.846154,110.769231 Z M11.0769231,0 C13.1161283,0 14.7692308,1.65310246 14.7692308,3.69230769 L14.7692308,99.6923077 L55.3846154,99.6923077 C57.4238206,99.6923077 59.0769231,101.34541 59.0769231,103.384615 L59.0769231,110.769231 C59.0769231,112.808436 57.4238206,114.461538 55.3846154,114.461538 L3.69230769,114.461538 C1.65310246,114.461538 0,112.808436 0,110.769231 L0,3.69230769 C0,1.65310246 1.65310246,0 3.69230769,0 L11.0769231,0 Z M258.461538,3.69230769 L258.461538,66.7255574 L293.309898,30.6423658 C295.384615,29.0769231 297.230769,29.5384615 298.595174,30.5765996 L303.900292,35.7012487 C305.076923,36.9230769 305.538462,39.2307692 304.00823,40.8251406 L281.29482,64.3447146 L313.449346,110.203307 C314.769231,112.615385 312.461538,114.461538 311.076923,114.461538 L300.461538,114.461538 C298.738462,114.461538 297.653266,113.400145 297.235356,112.857486 L270.840638,75.1695757 L258.461538,87.9877762 L258.461538,110.769231 C258.461538,112.615385 256.615385,114.461538 254.769231,114.461538 L247.384615,114.461538 C245.538462,114.461538 243.692308,112.615385 243.692308,110.769231 L243.692308,3.69230769 C243.692308,1.65310246 245.34541,0 247.384615,0 L254.769231,0 C256.808436,0 258.461538,1.65310246 258.461538,3.69230769 Z" id="Combined-Shape" fill="#9666FF"></path>
    </g>
</svg>