<?xml version="1.0" encoding="UTF-8"?>
<svg width="323px" height="144px" viewBox="0 0 323 144" version="1.1" xmlns="http://www.w3.org/2000/svg" xmlns:xlink="http://www.w3.org/1999/xlink">
    <title>Combined Shape</title>
    <g id="Page-1" stroke="none" stroke-width="1" fill="none" fill-rule="evenodd">
        <path d="M83.8461538,77.5384615 C83.8461538,89.7736929 93.7647686,99.6923077 106,99.6923077 C118.235231,99.6923077 128.153846,89.7736929 128.153846,77.5384615 L128.153846,33.2307692 C128.153846,31.191564 129.806949,29.5384615 131.846154,29.5384615 L139.230769,29.5384615 C141.269974,29.5384615 142.923077,31.191564 142.923077,33.2307692 L142.923077,101.538462 C142.923077,124.989322 123.912399,144 100.461538,144 L93.0769231,144 C91.0377178,144 89.3846154,142.346898 89.3846154,140.307692 L89.3846154,132.923077 C89.3846154,130.883872 91.0377178,129.230769 93.0769231,129.230769 L100.461538,129.230769 C113.68706,129.230769 124.747145,119.959435 127.496968,107.561593 C121.441222,111.905101 114.019155,114.461538 106,114.461538 C85.6079477,114.461538 69.0769231,97.9305138 69.0769231,77.5384615 C69.0769231,77.0640445 69.0858705,76.5917173 69.1036058,76.1216394 C69.0853258,75.981116 69.0769231,75.8376931 69.0769231,75.6923077 L69.0769231,33.2307692 C69.0769231,31.191564 70.7300255,29.5384615 72.7692308,29.5384615 L80.1538462,29.5384615 C82.1930514,29.5384615 83.8461538,31.191564 83.8461538,33.2307692 L83.8461538,77.5384615 Z M175.692308,110.769231 C175.692308,112.808436 174.039205,114.461538 172,114.461538 L164.615385,114.461538 C162.576179,114.461538 160.923077,112.808436 160.923077,110.769231 L160.923077,33.2307692 C160.923077,31.191564 162.576179,29.5384615 164.615385,29.5384615 L172,29.5384615 C174.039205,29.5384615 175.692308,31.191564 175.692308,33.2307692 L175.693213,36.9196932 C181.864089,32.2848625 189.534393,29.5384615 197.846154,29.5384615 C218.025789,29.5384615 234.424415,45.7268835 234.763864,65.825558 L234.769231,66.4615385 L234.769231,110.769231 C234.769231,112.808436 233.116128,114.461538 231.076923,114.461538 L223.692308,114.461538 C221.653102,114.461538 220,112.808436 220,110.769231 L220,66.4615385 C220,54.2263071 210.081385,44.3076923 197.846154,44.3076923 C185.799157,44.3076923 175.998044,53.9234665 175.699323,65.8985081 L175.692308,66.4615385 L175.692308,110.769231 Z M11.0769231,0 C13.1161283,0 14.7692308,1.65310246 14.7692308,3.69230769 L14.7692308,99.6923077 L55.3846154,99.6923077 C57.4238206,99.6923077 59.0769231,101.34541 59.0769231,103.384615 L59.0769231,110.769231 C59.0769231,112.808436 57.4238206,114.461538 55.3846154,114.461538 L3.69230769,114.461538 C1.65310246,114.461538 -9.09494702e-13,112.808436 -9.09494702e-13,110.769231 L-9.09494702e-13,3.69230769 C-9.09494702e-13,1.65310246 1.65310246,0 3.69230769,0 L11.0769231,0 Z M267.538462,3.69230769 L267.538462,66.7255574 L302.386821,30.6423658 C304.461538,29.0769231 306.307692,29.5384615 307.672097,30.5765996 L312.977216,35.7012487 C314.153846,36.9230769 314.615385,39.2307692 313.085153,40.8251406 L290.371743,64.3447146 L322.52627,110.203307 C323.846154,112.615385 321.538462,114.461538 320.153846,114.461538 L309.538462,114.461538 C307.815385,114.461538 306.730189,113.400145 306.312279,112.857486 L279.917561,75.1695757 L267.538462,87.9877762 L267.538462,110.769231 C267.538462,112.615385 265.692308,114.461538 263.846154,114.461538 L256.461538,114.461538 C254.615385,114.461538 252.769231,112.615385 252.769231,110.769231 L252.769231,3.69230769 C252.769231,1.65310246 254.422333,0 256.461538,0 L263.846154,0 C265.885359,0 267.538462,1.65310246 267.538462,3.69230769 Z" id="Combined-Shape" fill="#9666FF"></path>
    </g>
</svg>