<?xml version="1.0" encoding="UTF-8"?>
<svg width="64px" height="64px" viewBox="0 0 64 64" version="1.1" xmlns="http://www.w3.org/2000/svg" xmlns:xlink="http://www.w3.org/1999/xlink">
    <title>Combined Shape</title>
    <defs>
        <linearGradient x1="0%" y1="41.6957378%" x2="245.681381%" y2="72.0968485%" id="linearGradient-1">
            <stop stop-color="#9666FF" offset="0%"></stop>
            <stop stop-color="#27BAFD" offset="50.4492041%"></stop>
            <stop stop-color="#2AD093" offset="100%"></stop>
        </linearGradient>
    </defs>
    <g id="Page-1" stroke="none" stroke-width="1" fill="none" fill-rule="evenodd">
        <path d="M32,0 C49.673112,0 64,14.326888 64,32 C64,49.673112 49.673112,64 32,64 C14.326888,64 0,49.673112 0,32 C0,14.326888 14.326888,0 32,0 Z M46.968412,19.6081479 L25.0983901,19.7264515 C24.3187054,19.7306691 23.6811801,20.3290145 23.6126111,21.0900485 L23.606526,21.2345435 L23.6145766,21.3818498 C23.6399901,21.625812 23.7249494,21.860628 23.8629477,22.0652189 L27.5143882,27.4787021 L13.4918641,27.5551521 C12.7121794,27.5593698 12.0746541,28.1577152 12.006085,28.9187491 L12,29.0632442 C12.0016019,29.3593773 12.0908237,29.6484105 12.2564217,29.8939195 L25.8241,50.0088298 C26.2873506,50.695627 27.2196485,50.8768474 27.9064457,50.4135968 L28.0245463,50.3251875 C28.2134383,50.1687163 28.36169,49.9677734 28.4553722,49.7394653 L33.7784671,36.765581 L37.430626,42.1801292 C37.8938766,42.8669264 38.8261745,43.0481468 39.5129717,42.5848962 C39.7584808,42.4192982 39.9494796,42.1847344 40.0618983,41.9107646 L48.3642418,21.6775508 C48.6787265,20.9111365 48.3123651,20.0348947 47.5459507,19.7204101 C47.3627361,19.6452312 47.1664481,19.6070767 46.968412,19.6081479 Z M35.3618859,27.4368486 C35.5599221,27.4357773 35.7562101,27.4739318 35.9394247,27.5491107 C36.7058391,27.8635954 37.0722004,28.7398371 36.7576871,29.5063213 L34.1327135,35.9007566 C33.9810717,36.2701561 33.4789447,36.3215208 33.2556515,35.9904749 L28.0372633,28.2538963 C27.8139521,27.9228238 28.0497331,27.4764711 28.4490728,27.4743072 Z" id="Combined-Shape" fill="url(#linearGradient-1)" fill-rule="nonzero"></path>
    </g>
</svg>