<?xml version="1.0" encoding="UTF-8"?>
<svg width="62px" height="62px" viewBox="0 0 62 62" version="1.1" xmlns="http://www.w3.org/2000/svg" xmlns:xlink="http://www.w3.org/1999/xlink">
    <title>Combined Shape</title>
    <defs>
        <linearGradient x1="24.0431263%" y1="60.6047957%" x2="362.646878%" y2="-57.6062602%" id="linearGradient-1">
            <stop stop-color="#9666FF" offset="0%"></stop>
            <stop stop-color="#27BAFD" offset="54.2841895%"></stop>
            <stop stop-color="#2AD093" offset="100%"></stop>
            <stop stop-color="#2AD093" offset="100%"></stop>
        </linearGradient>
    </defs>
    <g id="Page-1" stroke="none" stroke-width="1" fill="none" fill-rule="evenodd">
        <path d="M31,0 C48.1208272,0 62,13.8791728 62,31 C62,48.1208272 48.1208272,62 31,62 C13.8791728,62 0,48.1208272 0,31 C0,13.8791728 13.8791728,0 31,0 Z M45.5006491,18.9953933 L24.3140654,19.1099999 C23.5587458,19.1140857 22.9411433,19.6937328 22.874717,20.4309845 L22.8688221,20.570964 L22.8798519,20.7419838 C22.907907,20.9681568 22.9888922,21.1854113 23.1172306,21.3756808 L26.6541141,26.6202204 L13.0702433,26.6940536 C12.3149238,26.6981395 11.6973212,27.2777866 11.6308949,28.0150382 L11.625,28.1550178 C11.6265518,28.4418968 11.7129855,28.7218976 11.8734085,28.9597346 L25.0170969,48.4460539 C25.4658709,49.1113887 26.3690345,49.2869459 27.0343693,48.8381719 L27.1705481,48.7341299 C27.3431733,48.5853284 27.4790174,48.3974336 27.5661419,48.185107 L32.7224755,35.6169362 L36.260919,40.8620001 C36.7096929,41.5273349 37.6128566,41.7028922 38.2781914,41.2541182 C38.5160283,41.0936951 38.7010583,40.8664615 38.8099639,40.6010532 L46.8528593,21.0001273 C47.1575163,20.2576634 46.8026037,19.4088043 46.0601398,19.1041473 C45.8826506,19.0313177 45.6924966,18.9943555 45.5006491,18.9953933 Z M34.256827,26.579447 C34.4486745,26.5784093 34.6388286,26.6153715 34.8163177,26.688201 C35.5587816,26.992858 35.9136942,27.8417172 35.6090094,28.5842488 L33.0660662,34.778858 C32.9191632,35.1367138 32.4327277,35.1864732 32.2164124,34.8657726 L27.1610988,27.370962 C26.9447661,27.0502355 27.1731789,26.6178314 27.5600392,26.6157351 Z" id="Combined-Shape" fill="url(#linearGradient-1)" fill-rule="nonzero"></path>
    </g>
</svg>