<?xml version="1.0" encoding="UTF-8"?>
<svg width="90px" height="61px" viewBox="0 0 90 61" version="1.1" xmlns="http://www.w3.org/2000/svg" xmlns:xlink="http://www.w3.org/1999/xlink">
    <title>Group 7</title>
    <defs>
        <linearGradient x1="100%" y1="50%" x2="0%" y2="50%" id="linearGradient-1">
            <stop stop-color="#0BB074" offset="0%"></stop>
            <stop stop-color="#079EBA" offset="48.7611144%"></stop>
            <stop stop-color="#822B90" offset="100%"></stop>
        </linearGradient>
    </defs>
    <g id="Page-1" stroke="none" stroke-width="1" fill="none" fill-rule="evenodd">
        <g id="Group-7">
            <path d="M34.4027221,2.58173892 L34.5857864,2.75735931 L57.9289322,26.1005051 C60.2119973,28.3835702 60.2705374,32.0487779 58.1045526,34.4027221 L57.9289322,34.5857864 L50.499,42.014 L47.671,39.186 L55.1005051,31.7573593 C55.8404458,31.0174185 55.8793901,29.8419344 55.2173378,29.056147 L55.1005051,28.9289322 L31.7573593,5.58578644 C31.0174185,4.84584567 29.8419344,4.80690142 29.056147,5.46895369 L28.9289322,5.58578644 L5.58578644,28.9289322 C4.84584567,29.668873 4.80690142,30.8443571 5.46895369,31.6301445 L5.58578644,31.7573593 L28.9289322,55.1005051 C29.668873,55.8404458 30.8443571,55.8793901 31.6301445,55.2173378 L31.7573593,55.1005051 L39.186,47.671 L42.014,50.499 L34.5857864,57.9289322 C32.3027213,60.2119973 28.6375136,60.2705374 26.2835694,58.1045526 L26.1005051,57.9289322 L2.75735931,34.5857864 C0.474294223,32.3027213 0.415754092,28.6375136 2.58173892,26.2835694 L2.75735931,26.1005051 L26.1005051,2.75735931 C28.3835702,0.474294223 32.0487779,0.415754092 34.4027221,2.58173892 Z M63.4027221,2.58173892 L63.5857864,2.75735931 L86.9289322,26.1005051 C89.2119973,28.3835702 89.2705374,32.0487779 87.1045526,34.4027221 L86.9289322,34.5857864 L63.5857864,57.9289322 C61.3027213,60.2119973 57.6375136,60.2705374 55.2835694,58.1045526 L55.1005051,57.9289322 L31.7573593,34.5857864 C29.4742942,32.3027213 29.4157541,28.6375136 31.5817389,26.2835694 L31.7573593,26.1005051 L39.161,18.696 L41.989,21.524 L34.5857864,28.9289322 C33.8458457,29.668873 33.8069014,30.8443571 34.4689537,31.6301445 L34.5857864,31.7573593 L57.9289322,55.1005051 C58.668873,55.8404458 59.8443571,55.8793901 60.6301445,55.2173378 L60.7573593,55.1005051 L84.1005051,31.7573593 C84.8404458,31.0174185 84.8793901,29.8419344 84.2173378,29.056147 L84.1005051,28.9289322 L60.7573593,5.58578644 C60.0174185,4.84584567 58.8419344,4.80690142 58.056147,5.46895369 L57.9289322,5.58578644 L50.474,13.039 L47.646,10.211 L55.1005051,2.75735931 C57.3835702,0.474294223 61.0487779,0.415754092 63.4027221,2.58173892 Z" id="Combined-Shape" fill="url(#linearGradient-1)" fill-rule="nonzero"></path>
            <rect id="Rectangle" x="0" y="0" width="90" height="61"></rect>
        </g>
    </g>
</svg>