<?xml version="1.0" encoding="UTF-8"?>
<svg width="244px" height="78px" viewBox="0 0 244 78" version="1.1" xmlns="http://www.w3.org/2000/svg" xmlns:xlink="http://www.w3.org/1999/xlink">
    <title>Combined Shape</title>
    <defs>
        <linearGradient x1="13.2676573%" y1="48.7628317%" x2="117.41289%" y2="51.6275373%" id="linearGradient-1">
            <stop stop-color="#9666FF" offset="0%"></stop>
            <stop stop-color="#27BAFD" offset="51.2388856%"></stop>
            <stop stop-color="#2AD093" offset="100%"></stop>
            <stop stop-color="#2AD093" offset="100%"></stop>
        </linearGradient>
    </defs>
    <g id="Page-1" stroke="none" stroke-width="1" fill="none" fill-rule="evenodd">
        <path d="M118,42 C118,48.627417 123.372583,54 130,54 C136.627417,54 142,48.627417 142,42 L142,18 C142,16.8954305 142.895431,16 144,16 L148,16 C149.104569,16 150,16.8954305 150,18 L150,55 C150,67.7025492 139.702549,78 127,78 L123,78 C121.895431,78 121,77.1045695 121,76 L121,72 C121,70.8954305 121.895431,70 123,70 L127,70 C134.163824,70 140.154703,64.9780274 141.644191,58.2625293 C138.363995,60.6152632 134.343709,62 130,62 C118.954305,62 110,53.045695 110,42 C110,41.7430241 110.004847,41.4871802 110.014453,41.2325547 C110.004551,41.1564378 110,41.0787504 110,41 L110,18 C110,16.8954305 110.895431,16 112,16 L116,16 C117.104569,16 118,16.8954305 118,18 L118,42 Z M166,60 C166,61.1045695 165.104569,62 164,62 L160,62 C158.895431,62 158,61.1045695 158,60 L158,18 C158,16.8954305 158.895431,16 160,16 L164,16 C165.104569,16 166,16.8954305 166,18 L166.00049,19.9981671 C169.343048,17.4876339 173.497796,16 178,16 C188.930636,16 197.813225,24.7687286 197.997093,35.6555106 L198,36 L198,60 C198,61.1045695 197.104569,62 196,62 L192,62 C190.895431,62 190,61.1045695 190,60 L190,36 C190,29.372583 184.627417,24 178,24 C171.474543,24 166.165607,29.2085444 166.0038,35.6950252 L166,36 L166,60 Z M80,0 C81.1045695,0 82,0.8954305 82,2 L82,54 L104,54 C105.104569,54 106,54.8954305 106,56 L106,60 C106,61.1045695 105.104569,62 104,62 L76,62 C74.8954305,62 74,61.1045695 74,60 L74,2 C74,0.8954305 74.8954305,0 76,0 L80,0 Z M31,0 C48.1208272,0 62,13.8791728 62,31 C62,48.1208272 48.1208272,62 31,62 C13.8791728,62 0,48.1208272 0,31 C0,13.8791728 13.8791728,0 31,0 Z M45.5006491,18.9953933 L24.3140654,19.1099999 C23.5587458,19.1140857 22.9411433,19.6937328 22.874717,20.4309845 L22.8688221,20.570964 L22.8798519,20.7419838 C22.907907,20.9681568 22.9888922,21.1854113 23.1172306,21.3756808 L26.6541141,26.6202204 L13.0702433,26.6940536 C12.3149238,26.6981395 11.6973212,27.2777866 11.6308949,28.0150382 L11.625,28.1550178 C11.6265518,28.4418968 11.7129855,28.7218976 11.8734085,28.9597346 L25.0170969,48.4460539 C25.4658709,49.1113887 26.3690345,49.2869459 27.0343693,48.8381719 L27.1705481,48.7341299 C27.3431733,48.5853284 27.4790174,48.3974336 27.5661419,48.185107 L32.7224755,35.6169362 L36.260919,40.8620001 C36.7096929,41.5273349 37.6128566,41.7028922 38.2781914,41.2541182 C38.5160283,41.0936951 38.7010583,40.8664615 38.8099639,40.6010532 L46.8528593,21.0001273 C47.1575163,20.2576634 46.8026037,19.4088043 46.0601398,19.1041473 C45.8826506,19.0313177 45.6924966,18.9943555 45.5006491,18.9953933 Z M34.256827,26.579447 C34.4486745,26.5784093 34.6388286,26.6153715 34.8163177,26.688201 C35.5587816,26.992858 35.9136942,27.8417172 35.6090094,28.5842488 L33.0660662,34.778858 C32.9191632,35.1367138 32.4327277,35.1864732 32.2164124,34.8657726 L27.1610988,27.370962 C26.9447661,27.0502355 27.1731789,26.6178314 27.5600392,26.6157351 Z M214,2 L214,36.1430103 L232.876195,16.5979482 C234,15.75 235,16 235.739052,16.5623248 L238.612658,19.3381764 C239.25,20 239.5,21.25 238.671124,22.1136178 L226.368027,34.8533871 L243.785063,59.6934577 C244.5,61 243.25,62 242.5,62 L236.75,62 C235.816667,62 235.228852,61.4250785 235.002484,61.1311381 L220.705346,40.7168535 L214,47.6600454 L214,60 C214,61 213,62 212,62 L208,62 C207,62 206,61 206,60 L206,2 C206,0.8954305 206.895431,0 208,0 L212,0 C213.104569,0 214,0.8954305 214,2 Z" id="Combined-Shape" fill="url(#linearGradient-1)"></path>
    </g>
</svg>