<?xml version="1.0" encoding="UTF-8"?>
<svg width="254px" height="78px" viewBox="0 0 254 78" version="1.1" xmlns="http://www.w3.org/2000/svg" xmlns:xlink="http://www.w3.org/1999/xlink">
    <title>Combined Shape</title>
    <defs>
        <linearGradient x1="13.2676573%" y1="48.8583295%" x2="117.41289%" y2="51.5019066%" id="linearGradient-1">
            <stop stop-color="#9666FF" offset="0%"></stop>
            <stop stop-color="#27BAFD" offset="51.2388856%"></stop>
            <stop stop-color="#2AD093" offset="100%"></stop>
            <stop stop-color="#2AD093" offset="100%"></stop>
        </linearGradient>
    </defs>
    <g id="Page-1" stroke="none" stroke-width="1" fill="none" fill-rule="evenodd">
        <path d="M124,42 C124,48.627417 129.372583,54 136,54 C142.627417,54 148,48.627417 148,42 L148,18 C148,16.8954305 148.895431,16 150,16 L154,16 C155.104569,16 156,16.8954305 156,18 L156,55 C156,67.7025492 145.702549,78 133,78 L129,78 C127.895431,78 127,77.1045695 127,76 L127,72 C127,70.8954305 127.895431,70 129,70 L133,70 C140.163824,70 146.154703,64.9780274 147.644191,58.2625293 C144.363995,60.6152632 140.343709,62 136,62 C124.954305,62 116,53.045695 116,42 C116,41.7430241 116.004847,41.4871802 116.014453,41.2325547 C116.004551,41.1564378 116,41.0787504 116,41 L116,18 C116,16.8954305 116.895431,16 118,16 L122,16 C123.104569,16 124,16.8954305 124,18 L124,42 Z M174,60 C174,61.1045695 173.104569,62 172,62 L168,62 C166.895431,62 166,61.1045695 166,60 L166,18 C166,16.8954305 166.895431,16 168,16 L172,16 C173.104569,16 174,16.8954305 174,18 L174.00049,19.9981671 C177.343048,17.4876339 181.497796,16 186,16 C196.930636,16 205.813225,24.7687286 205.997093,35.6555106 L206,36 L206,60 C206,61.1045695 205.104569,62 204,62 L200,62 C198.895431,62 198,61.1045695 198,60 L198,36 C198,29.372583 192.627417,24 186,24 C179.474543,24 174.165607,29.2085444 174.0038,35.6950252 L174,36 L174,60 Z M84,0 C85.1045695,0 86,0.8954305 86,2 L86,54 L108,54 C109.104569,54 110,54.8954305 110,56 L110,60 C110,61.1045695 109.104569,62 108,62 L80,62 C78.8954305,62 78,61.1045695 78,60 L78,2 C78,0.8954305 78.8954305,0 80,0 L84,0 Z M31,0 C48.1208272,0 62,13.8791728 62,31 C62,48.1208272 48.1208272,62 31,62 C13.8791728,62 0,48.1208272 0,31 C0,13.8791728 13.8791728,0 31,0 Z M45.5006491,18.9953933 L24.3140654,19.1099999 C23.5587458,19.1140857 22.9411433,19.6937328 22.874717,20.4309845 L22.8688221,20.570964 L22.8798519,20.7419838 C22.907907,20.9681568 22.9888922,21.1854113 23.1172306,21.3756808 L26.6541141,26.6202204 L13.0702433,26.6940536 C12.3149238,26.6981395 11.6973212,27.2777866 11.6308949,28.0150382 L11.625,28.1550178 C11.6265518,28.4418968 11.7129855,28.7218976 11.8734085,28.9597346 L25.0170969,48.4460539 C25.4658709,49.1113887 26.3690345,49.2869459 27.0343693,48.8381719 L27.1705481,48.7341299 C27.3431733,48.5853284 27.4790174,48.3974336 27.5661419,48.185107 L32.7224755,35.6169362 L36.260919,40.8620001 C36.7096929,41.5273349 37.6128566,41.7028922 38.2781914,41.2541182 C38.5160283,41.0936951 38.7010583,40.8664615 38.8099639,40.6010532 L46.8528593,21.0001273 C47.1575163,20.2576634 46.8026037,19.4088043 46.0601398,19.1041473 C45.8826506,19.0313177 45.6924966,18.9943555 45.5006491,18.9953933 Z M34.256827,26.579447 C34.4486745,26.5784093 34.6388286,26.6153715 34.8163177,26.688201 C35.5587816,26.992858 35.9136942,27.8417172 35.6090094,28.5842488 L33.0660662,34.778858 C32.9191632,35.1367138 32.4327277,35.1864732 32.2164124,34.8657726 L27.1610988,27.370962 C26.9447661,27.0502355 27.1731789,26.6178314 27.5600392,26.6157351 Z M224,2 L224,36.1430103 L242.876195,16.5979482 C244,15.75 245,16 245.739052,16.5623248 L248.612658,19.3381764 C249.25,20 249.5,21.25 248.671124,22.1136178 L236.368027,34.8533871 L253.785063,59.6934577 C254.5,61 253.25,62 252.5,62 L246.75,62 C245.816667,62 245.228852,61.4250785 245.002484,61.1311381 L230.705346,40.7168535 L224,47.6600454 L224,60 C224,61 223,62 222,62 L218,62 C217,62 216,61 216,60 L216,2 C216,0.8954305 216.895431,0 218,0 L222,0 C223.104569,0 224,0.8954305 224,2 Z" id="Combined-Shape" fill="url(#linearGradient-1)"></path>
    </g>
</svg>