<?xml version="1.0" encoding="UTF-8"?>
<svg width="480px" height="142px" viewBox="0 0 480 142" version="1.1" xmlns="http://www.w3.org/2000/svg" xmlns:xlink="http://www.w3.org/1999/xlink">
    <title>Group 5</title>
    <defs>
        <linearGradient x1="100%" y1="50%" x2="0%" y2="50%" id="linearGradient-1">
            <stop stop-color="#0BB074" offset="0%"></stop>
            <stop stop-color="#079EBA" offset="48.7611144%"></stop>
            <stop stop-color="#822B90" offset="100%"></stop>
        </linearGradient>
    </defs>
    <g id="Page-1" stroke="none" stroke-width="1" fill="none" fill-rule="evenodd">
        <g id="Group-5">
            <path d="M63.0278877,4.72990337 L63.3632729,5.05165065 L106.129341,47.8177192 C110.312056,52.0004339 110.419305,58.7153182 106.451089,63.0278877 L106.129341,63.3632729 L92.5172519,76.9722137 L87.3361832,71.791145 L100.94749,58.1814216 C102.303107,56.825805 102.374455,54.6722462 101.161535,53.2326356 L100.94749,52.9995704 L58.1814216,10.2335019 C56.825805,8.8778852 54.6722462,8.80653696 53.2326356,10.0194571 L52.9995704,10.2335019 L10.2335019,52.9995704 C8.8778852,54.3551871 8.80653696,56.5087458 10.0194571,57.9483564 L10.2335019,58.1814216 L52.9995704,100.94749 C54.3551871,102.303107 56.5087458,102.374455 57.9483564,101.161535 L58.1814216,100.94749 L71.791145,87.3361832 L76.9722137,92.5172519 L63.3632729,106.129341 C59.1805582,110.312056 52.4656739,110.419305 48.1531043,106.451089 L47.8177192,106.129341 L5.05165065,63.3632729 C0.86893598,59.1805582 0.761686886,52.4656739 4.72990337,48.1531043 L5.05165065,47.8177192 L47.8177192,5.05165065 C52.0004339,0.86893598 58.7153182,0.761686886 63.0278877,4.72990337 Z M116.157659,4.72990337 L116.493044,5.05165065 L159.259112,47.8177192 C163.441827,52.0004339 163.549076,58.7153182 159.58086,63.0278877 L159.259112,63.3632729 L116.493044,106.129341 C112.310329,110.312056 105.595445,110.419305 101.282875,106.451089 L100.94749,106.129341 L58.1814216,63.3632729 C53.998707,59.1805582 53.8914579,52.4656739 57.8596744,48.1531043 L58.1814216,47.8177192 L71.7453435,34.2522137 L76.9264122,39.4332824 L63.3632729,52.9995704 C62.0076562,54.3551871 61.936308,56.5087458 63.1492281,57.9483564 L63.3632729,58.1814216 L106.129341,100.94749 C107.484958,102.303107 109.638517,102.374455 111.078127,101.161535 L111.311193,100.94749 L154.077261,58.1814216 C155.432878,56.825805 155.504226,54.6722462 154.291306,53.2326356 L154.077261,52.9995704 L111.311193,10.2335019 C109.955576,8.8778852 107.802017,8.80653696 106.362407,10.0194571 L106.129341,10.2335019 L92.4714504,23.8882443 L87.2903817,18.7071756 L100.94749,5.05165065 C105.130205,0.86893598 111.845089,0.761686886 116.157659,4.72990337 Z M256.957557,109.923664 C259.112061,109.923664 260.804885,108.23084 260.804885,106.230229 C260.804885,104.075725 259.112061,102.382901 256.957557,102.382901 L205.403359,102.382901 L205.403359,5.8919084 C205.403359,3.89129771 203.710534,2.19847328 201.556031,2.19847328 C199.55542,2.19847328 197.862595,3.89129771 197.862595,5.8919084 L197.862595,106.230229 C197.862595,108.23084 199.55542,109.923664 201.556031,109.923664 L201.863817,109.923664 L256.957557,109.923664 Z M266.858015,78.991145 C266.858015,95.9193893 280.554504,109.615878 297.328855,109.769771 C306.716336,109.769771 315.026565,105.460763 320.720611,98.9972519 L320.720611,103.921832 C320.566718,119.465038 307.947481,131.930382 292.250382,131.930382 C287.941374,131.930382 283.632366,130.85313 279.938931,129.006412 C278.092214,128.544733 276.091603,129.006412 275.168244,130.85313 C274.244885,132.545954 275.014351,134.700458 276.707176,135.77771 C281.477863,137.932214 286.710229,139.317252 292.250382,139.317252 C312.102595,139.317252 328.107481,123.620153 328.107481,103.921832 L328.107481,80.3761832 L328.107481,78.991145 L328.107481,38.0555725 C328.107481,37.5938931 327.953588,36.9783206 327.645802,36.5166412 C327.491908,36.0549618 327.030229,35.5932824 326.722443,35.2854962 C326.10687,34.9777099 325.491298,34.6699237 324.875725,34.5160305 L324.414046,34.5160305 L323.952366,34.5160305 C323.798473,34.5160305 323.64458,34.6699237 323.490687,34.6699237 L323.182901,34.6699237 C322.721221,34.8238168 322.105649,35.1316031 321.797863,35.5932824 C321.643969,35.5932824 321.643969,35.7471756 321.490076,35.7471756 C321.490076,35.9010687 321.336183,36.0549618 321.336183,36.208855 C320.874504,36.6705344 320.720611,37.44 320.720611,38.0555725 L320.720611,78.991145 C320.566718,91.9181679 310.255878,102.229008 297.328855,102.229008 C284.555725,102.229008 274.244885,91.9181679 274.244885,78.991145 L274.244885,38.0555725 C274.244885,36.0549618 272.552061,34.5160305 270.397557,34.5160305 C268.55084,34.5160305 266.858015,36.0549618 266.858015,38.0555725 L266.858015,78.991145 Z M397.366718,106.230229 C397.366718,108.384733 399.059542,109.923664 401.060153,109.923664 C403.060763,109.923664 404.753588,108.384733 404.753588,106.230229 L404.753588,65.2946565 C404.753588,48.5203053 391.057099,34.6699237 374.128855,34.6699237 C364.741374,34.6699237 356.277252,38.9789313 350.737099,45.5963359 L350.737099,38.3633588 C350.737099,36.3627481 349.198168,34.6699237 347.197557,34.6699237 C345.043053,34.6699237 343.504122,36.3627481 343.504122,38.3633588 L343.504122,64.0635115 L343.504122,65.2946565 L343.504122,106.230229 L343.504122,107.153588 C343.504122,107.153588 343.658015,107.307481 343.658015,107.461374 C343.658015,107.615267 343.658015,107.76916 343.811908,107.923053 C344.273588,108.846412 345.196947,109.615878 346.274198,109.923664 L347.197557,109.923664 C348.274809,109.923664 349.352061,109.461985 349.967634,108.538626 C350.429313,108.076947 350.583206,107.461374 350.737099,106.845802 L350.737099,106.230229 L350.737099,65.2946565 C351.044885,52.5215267 361.355725,42.0567939 374.128855,42.0567939 C387.055878,42.0567939 397.366718,52.5215267 397.366718,65.2946565 L397.366718,106.230229 Z M419.52,106.230229 C419.52,108.23084 421.212824,109.923664 423.213435,109.923664 C425.367939,109.923664 427.060763,108.23084 427.060763,106.230229 L427.060763,88.9941985 L442.450076,73.6048855 L471.381985,108.538626 C471.997557,109.615878 473.228702,109.923664 474.305954,109.923664 C475.07542,109.923664 475.998779,109.769771 476.768244,109.154198 C478.307176,107.615267 478.461069,105.460763 477.076031,103.767939 L447.836336,68.218626 L476.922137,39.1328244 C478.461069,37.5938931 478.461069,35.2854962 476.922137,33.900458 C475.383206,32.3615267 473.228702,32.3615267 471.689771,33.900458 L427.060763,78.3755725 L427.060763,5.8919084 C427.060763,3.89129771 425.367939,2.19847328 423.213435,2.19847328 C421.212824,2.19847328 419.52,3.89129771 419.52,5.8919084 L419.52,106.230229 Z" id="Combined-Shape" fill="url(#linearGradient-1)" fill-rule="nonzero"></path>
            <rect id="Rectangle" x="0" y="0" width="480" height="141.068702"></rect>
        </g>
    </g>
</svg>